<?xml version="1.0" encoding="utf-8"?>
<!-- Generator: Adobe Illustrator 16.0.0, SVG Export Plug-In . SVG Version: 6.00 Build 0)  -->
<!DOCTYPE svg PUBLIC "-//W3C//DTD SVG 1.1//EN" "http://www.w3.org/Graphics/SVG/1.1/DTD/svg11.dtd">
<svg version="1.1" id="_x39_" xmlns="http://www.w3.org/2000/svg" xmlns:xlink="http://www.w3.org/1999/xlink" x="0px" y="0px"
	 width="515px" height="357px" viewBox="0 0 515 357" enable-background="new 0 0 515 357" xml:space="preserve">
<g>
	<g>
		<path fill="#D8D8D8" d="M163.369,173.33c5.731,56.982,93.204,157.644,151.912,151.739s66.421-116.139,60.689-173.121
			c-5.73-56.981-57.969-98.389-116.677-92.484C200.584,65.368,157.638,116.348,163.369,173.33z"/>
	</g>
	<g opacity="0.8">
		<path fill="#63F42C" d="M88,273c19.269,41.489,61.675,51.71,209.107,37.017c80.436-8.017,186.365-65.35,170.609-162.109
			c-6.133-37.664-42.604-91.41-195.039-60.771C144,113,61.383,215.688,88,273z"/>
	</g>
	<g opacity="0.8">
		<path fill="#18D147" d="M111.066,160.569c0,64.496,116.088,134.94,180.129,134.94c64.043,0,132.847-70.444,132.847-134.94
			s-27.02-108.171-121.588-59.27C245.483,130.76,111.066,96.073,111.066,160.569z"/>
	</g>
	<g opacity="0.8">
		<path fill="#66FF50" d="M295.281,63.707c7.565,7.123,37.513,4.141,49.443-8.531c11.931-12.671,1.326-30.233-6.239-37.356
			c-7.566-7.123-23.37-2.624-35.301,10.047C291.255,40.538,287.716,56.585,295.281,63.707z"/>
	</g>
	<g opacity="0.8">
		<path fill="#D8D8D8" d="M81.956,191.909c3.68-6.847-2.618-27.015-12.813-32.494s-20.425,5.804-24.105,12.65
			c-3.68,6.848,1.601,16.84,11.795,22.319C67.027,199.864,78.275,198.756,81.956,191.909z"/>
	</g>
	<g opacity="0.8">
		<path fill="#29D81A" d="M382.622,58.069c-2.283,4.255,2.668,17.334,9.794,21.159s13.728-3.054,16.011-7.308
			c2.283-4.255-1.642-10.804-8.768-14.629S384.905,53.815,382.622,58.069z"/>
	</g>
	<g>
		<path fill="#FFFFFF" d="M193.344,242.829c-3.258,0-6.227-0.711-8.906-2.133c-2.68-1.422-4.969-3.293-6.868-5.609
			s-3.367-4.965-4.422-7.945s-1.578-6.056-1.578-9.224c0-3.207,0.547-6.305,1.641-9.285c1.094-2.984,2.617-5.609,4.578-7.879
			s4.281-4.083,6.961-5.438c2.68-1.352,5.609-2.027,8.781-2.027c3.258,0,6.227,0.711,8.907,2.133
			c2.688,1.423,4.977,3.301,6.867,5.642c1.899,2.34,3.368,5,4.399,7.98c1.031,2.984,1.547,6.012,1.547,9.082
			c0,3.211-0.547,6.31-1.641,9.29c-1.094,2.984-2.61,5.609-4.547,7.879s-4.25,4.094-6.93,5.469
			C199.454,242.142,196.524,242.829,193.344,242.829z M181.898,218.059c0,1.879,0.25,3.703,0.75,5.469
			c0.492,1.767,1.227,3.337,2.196,4.716c0.969,1.375,2.172,2.477,3.617,3.301s3.094,1.238,4.945,1.238
			c1.938,0,3.633-0.434,5.078-1.309c1.438-0.871,2.633-2.004,3.586-3.406c0.945-1.398,1.656-2.98,2.133-4.747
			c0.477-1.766,0.711-3.566,0.711-5.402c0-1.879-0.242-3.703-0.742-5.469c-0.492-1.766-1.234-3.324-2.227-4.68
			c-0.992-1.352-2.195-2.43-3.617-3.23c-1.422-0.805-3.063-1.207-4.922-1.207c-1.938,0-3.617,0.426-5.039,1.273
			c-1.422,0.852-2.617,1.961-3.586,3.336c-0.969,1.379-1.695,2.949-2.165,4.715C182.141,214.422,181.898,216.223,181.898,218.059z"
			/>
		<path fill="#FFFFFF" d="M221.126,242.415v-48.854h29.821v9.911h-19.68v10.523h16.211v9.152h-16.211v19.267H221.126z"/>
		<path fill="#FFFFFF" d="M256.331,242.415v-48.854h29.821v9.911h-19.68v10.523h16.211v9.152h-16.211v19.267H256.331z"/>
		<path fill="#FFFFFF" d="M322.404,232.509v9.906h-30.877v-48.854h30.314v9.911h-20.165v9.492h17.32v9.152h-17.32v10.392H322.404z"
			/>
		<path fill="#FFFFFF" d="M328.584,242.415v-48.854h19.797c2.063,0,3.969,0.48,5.727,1.445c1.75,0.965,3.266,2.227,4.548,3.786
			c1.272,1.559,2.273,3.324,3,5.297c0.718,1.973,1.078,3.969,1.078,5.984c0,1.516-0.164,2.973-0.492,4.371s-0.806,2.719-1.423,3.957
			c-0.616,1.238-1.375,2.352-2.258,3.336c-0.891,0.988-1.891,1.825-3,2.513l9.649,18.164h-11.445l-8.415-15.758h-6.617v15.758
			H328.584z M338.732,216.82h9.281c1.196,0,2.227-0.633,3.094-1.895c0.86-1.262,1.298-2.879,1.298-4.852
			c0-2.016-0.493-3.621-1.485-4.816c-0.992-1.191-2.063-1.785-3.219-1.785h-8.969V216.82z"/>
	</g>
	<text transform="matrix(1 0 0 1 154.5566 177.9141)" fill="#EDEDED" font-family="'MyriadPro-Bold'" font-size="59">What We</text>
</g>
</svg>
